<svg width="181" height="36" viewBox="0 0 181 36" fill="none" xmlns="http://www.w3.org/2000/svg">
<g clip-path="url(#clip0_1_43)">
<path d="M26.4665 21.39C26.3459 21.5136 26.2537 21.662 26.1965 21.825C26.1587 21.9979 26.1587 22.177 26.1965 22.35L27.0815 28.245C27.1604 28.705 27.1085 29.178 26.9315 29.61C26.7518 30.0464 26.4497 30.4215 26.0615 30.69C25.6767 30.9604 25.2256 31.1211 24.7565 31.155C24.2892 31.1741 23.8261 31.0597 23.4215 30.825L18.6365 28.17C18.4763 28.0798 18.2953 28.0333 18.1115 28.035C17.923 28.0334 17.7371 28.0799 17.5715 28.17L12.8165 30.825C12.4021 31.047 11.9364 31.1557 11.4665 31.14C11.1186 31.1172 10.7794 31.0221 10.4704 30.8607C10.1614 30.6993 9.88947 30.4752 9.67205 30.2027C9.45462 29.9302 9.29647 29.6154 9.20769 29.2783C9.11892 28.9411 9.10148 28.5892 9.1565 28.245L10.1165 22.35C10.1616 22.1779 10.1616 21.9971 10.1165 21.825C10.0705 21.6604 9.98262 21.5105 9.8615 21.39L5.6465 17.145C5.33193 16.8129 5.10958 16.4044 5.0015 15.96C4.88168 15.518 4.88168 15.052 5.0015 14.61C5.1675 14.1743 5.4472 13.791 5.8115 13.5C6.16336 13.2037 6.58802 13.0069 7.0415 12.93L12.5765 12.09C12.7551 12.0578 12.9243 11.9861 13.0715 11.88C13.2175 11.7686 13.3356 11.6248 13.4165 11.46L15.8165 6.29998C16.0154 5.87007 16.3328 5.50582 16.7315 5.24998C17.1329 4.99517 17.5985 4.85986 18.074 4.85986C18.5495 4.85986 19.0151 4.99517 19.4165 5.24998C19.8152 5.50582 20.1326 5.87007 20.3315 6.29998L22.7465 11.46C22.8226 11.6278 22.9416 11.7727 23.0915 11.88C23.2371 11.989 23.4069 12.061 23.5865 12.09L29.1215 12.93C29.575 13.0069 29.9996 13.2037 30.3515 13.5C30.696 13.8026 30.9547 14.1906 31.1015 14.625C31.2213 15.067 31.2213 15.533 31.1015 15.975C30.9934 16.4194 30.7711 16.8279 30.4565 17.16L26.4665 21.39Z" fill="#1B1B1D"/>
</g>
<g clip-path="url(#clip1_1_43)">
<path d="M62.4665 21.39C62.3459 21.5136 62.2537 21.662 62.1965 21.825C62.1587 21.9979 62.1587 22.177 62.1965 22.35L63.0815 28.245C63.1604 28.705 63.1085 29.178 62.9315 29.61C62.7518 30.0464 62.4497 30.4215 62.0615 30.69C61.6767 30.9604 61.2256 31.1211 60.7565 31.155C60.2892 31.1741 59.8261 31.0597 59.4215 30.825L54.6365 28.17C54.4763 28.0798 54.2953 28.0333 54.1115 28.035C53.923 28.0334 53.7371 28.0799 53.5715 28.17L48.8165 30.825C48.4021 31.047 47.9364 31.1557 47.4665 31.14C47.1186 31.1172 46.7794 31.0221 46.4704 30.8607C46.1614 30.6993 45.8895 30.4752 45.672 30.2027C45.4546 29.9302 45.2965 29.6154 45.2077 29.2783C45.1189 28.9411 45.1015 28.5892 45.1565 28.245L46.1165 22.35C46.1616 22.1779 46.1616 21.9971 46.1165 21.825C46.0705 21.6604 45.9826 21.5105 45.8615 21.39L41.6465 17.145C41.3319 16.8129 41.1096 16.4044 41.0015 15.96C40.8817 15.518 40.8817 15.052 41.0015 14.61C41.1675 14.1743 41.4472 13.791 41.8115 13.5C42.1634 13.2037 42.588 13.0069 43.0415 12.93L48.5765 12.09C48.7551 12.0578 48.9243 11.9861 49.0715 11.88C49.2175 11.7686 49.3356 11.6248 49.4165 11.46L51.8165 6.29998C52.0154 5.87007 52.3328 5.50582 52.7315 5.24998C53.1329 4.99517 53.5985 4.85986 54.074 4.85986C54.5495 4.85986 55.0151 4.99517 55.4165 5.24998C55.8152 5.50582 56.1326 5.87007 56.3315 6.29998L58.7465 11.46C58.8226 11.6278 58.9416 11.7727 59.0915 11.88C59.2371 11.989 59.4069 12.061 59.5865 12.09L65.1215 12.93C65.575 13.0069 65.9996 13.2037 66.3515 13.5C66.696 13.8026 66.9547 14.1906 67.1015 14.625C67.2213 15.067 67.2213 15.533 67.1015 15.975C66.9934 16.4194 66.7711 16.8279 66.4565 17.16L62.4665 21.39Z" fill="#1B1B1D"/>
</g>
<g clip-path="url(#clip2_1_43)">
<path d="M98.4665 21.39C98.3459 21.5136 98.2537 21.662 98.1965 21.825C98.1587 21.9979 98.1587 22.177 98.1965 22.35L99.0815 28.245C99.1604 28.705 99.1085 29.178 98.9315 29.61C98.7518 30.0464 98.4497 30.4215 98.0615 30.69C97.6767 30.9604 97.2256 31.1211 96.7565 31.155C96.2892 31.1741 95.8261 31.0597 95.4215 30.825L90.6365 28.17C90.4763 28.0798 90.2953 28.0333 90.1115 28.035C89.923 28.0334 89.7371 28.0799 89.5715 28.17L84.8165 30.825C84.4021 31.047 83.9364 31.1557 83.4665 31.14C83.1186 31.1172 82.7794 31.0221 82.4704 30.8607C82.1614 30.6993 81.8895 30.4752 81.6721 30.2027C81.4546 29.9302 81.2965 29.6154 81.2077 29.2783C81.1189 28.9411 81.1015 28.5892 81.1565 28.245L82.1165 22.35C82.1616 22.1779 82.1616 21.9971 82.1165 21.825C82.0705 21.6604 81.9826 21.5105 81.8615 21.39L77.6465 17.145C77.3319 16.8129 77.1096 16.4044 77.0015 15.96C76.8817 15.518 76.8817 15.052 77.0015 14.61C77.1675 14.1743 77.4472 13.791 77.8115 13.5C78.1634 13.2037 78.588 13.0069 79.0415 12.93L84.5765 12.09C84.7551 12.0578 84.9243 11.9861 85.0715 11.88C85.2175 11.7686 85.3356 11.6248 85.4165 11.46L87.8165 6.29998C88.0154 5.87007 88.3328 5.50582 88.7315 5.24998C89.1329 4.99517 89.5985 4.85986 90.074 4.85986C90.5495 4.85986 91.0151 4.99517 91.4165 5.24998C91.8152 5.50582 92.1326 5.87007 92.3315 6.29998L94.7465 11.46C94.8226 11.6278 94.9416 11.7727 95.0915 11.88C95.2371 11.989 95.407 12.061 95.5865 12.09L101.122 12.93C101.575 13.0069 102 13.2037 102.352 13.5C102.696 13.8026 102.955 14.1906 103.102 14.625C103.221 15.067 103.221 15.533 103.102 15.975C102.993 16.4194 102.771 16.8279 102.457 17.16L98.4665 21.39Z" fill="#1B1B1D"/>
</g>
<g clip-path="url(#clip3_1_43)">
<path d="M134.467 21.39C134.346 21.5136 134.254 21.662 134.197 21.825C134.159 21.9979 134.159 22.177 134.197 22.35L135.082 28.245C135.16 28.705 135.108 29.178 134.932 29.61C134.752 30.0464 134.45 30.4215 134.062 30.69C133.677 30.9604 133.226 31.1211 132.757 31.155C132.289 31.1741 131.826 31.0597 131.422 30.825L126.637 28.17C126.476 28.0798 126.295 28.0333 126.112 28.035C125.923 28.0334 125.737 28.0799 125.572 28.17L120.817 30.825C120.402 31.047 119.936 31.1557 119.467 31.14C119.119 31.1172 118.779 31.0221 118.47 30.8607C118.161 30.6993 117.889 30.4752 117.672 30.2027C117.455 29.9302 117.296 29.6154 117.208 29.2783C117.119 28.9411 117.101 28.5892 117.157 28.245L118.117 22.35C118.162 22.1779 118.162 21.9971 118.117 21.825C118.07 21.6604 117.983 21.5105 117.862 21.39L113.647 17.145C113.332 16.8129 113.11 16.4044 113.002 15.96C112.882 15.518 112.882 15.052 113.002 14.61C113.168 14.1743 113.447 13.791 113.812 13.5C114.163 13.2037 114.588 13.0069 115.042 12.93L120.577 12.09C120.755 12.0578 120.924 11.9861 121.072 11.88C121.217 11.7686 121.336 11.6248 121.417 11.46L123.817 6.29998C124.015 5.87007 124.333 5.50582 124.732 5.24998C125.133 4.99517 125.599 4.85986 126.074 4.85986C126.549 4.85986 127.015 4.99517 127.417 5.24998C127.815 5.50582 128.133 5.87007 128.332 6.29998L130.747 11.46C130.823 11.6278 130.942 11.7727 131.092 11.88C131.237 11.989 131.407 12.061 131.587 12.09L137.122 12.93C137.575 13.0069 138 13.2037 138.352 13.5C138.696 13.8026 138.955 14.1906 139.102 14.625C139.221 15.067 139.221 15.533 139.102 15.975C138.993 16.4194 138.771 16.8279 138.457 17.16L134.467 21.39Z" fill="#1B1B1D"/>
</g>
<g clip-path="url(#clip4_1_43)">
<path d="M170.467 21.39C170.346 21.5136 170.254 21.662 170.197 21.825C170.159 21.9979 170.159 22.177 170.197 22.35L171.082 28.245C171.16 28.705 171.108 29.178 170.932 29.61C170.752 30.0464 170.45 30.4215 170.062 30.69C169.677 30.9604 169.226 31.1211 168.757 31.155C168.289 31.1741 167.826 31.0597 167.422 30.825L162.637 28.17C162.476 28.0798 162.295 28.0333 162.112 28.035C161.923 28.0334 161.737 28.0799 161.572 28.17L156.817 30.825C156.402 31.047 155.936 31.1557 155.467 31.14C155.119 31.1172 154.779 31.0221 154.47 30.8607C154.161 30.6993 153.889 30.4752 153.672 30.2027C153.455 29.9302 153.296 29.6154 153.208 29.2783C153.119 28.9411 153.101 28.5892 153.157 28.245L154.117 22.35C154.162 22.1779 154.162 21.9971 154.117 21.825C154.07 21.6604 153.983 21.5105 153.862 21.39L149.647 17.145C149.332 16.8129 149.11 16.4044 149.002 15.96C148.882 15.518 148.882 15.052 149.002 14.61C149.168 14.1743 149.447 13.791 149.812 13.5C150.163 13.2037 150.588 13.0069 151.042 12.93L156.577 12.09C156.755 12.0578 156.924 11.9861 157.072 11.88C157.217 11.7686 157.336 11.6248 157.417 11.46L159.817 6.29998C160.015 5.87007 160.333 5.50582 160.732 5.24998C161.133 4.99517 161.599 4.85986 162.074 4.85986C162.549 4.85986 163.015 4.99517 163.417 5.24998C163.815 5.50582 164.133 5.87007 164.332 6.29998L166.747 11.46C166.823 11.6278 166.942 11.7727 167.092 11.88C167.237 11.989 167.407 12.061 167.587 12.09L173.122 12.93C173.575 13.0069 174 13.2037 174.352 13.5C174.696 13.8026 174.955 14.1906 175.102 14.625C175.221 15.067 175.221 15.533 175.102 15.975C174.993 16.4194 174.771 16.8279 174.457 17.16L170.467 21.39Z" fill="#1B1B1D"/>
</g>
<defs>
<clipPath id="clip0_1_43">
<rect width="36" height="36" fill="white" transform="translate(0.0814991)"/>
</clipPath>
<clipPath id="clip1_1_43">
<rect width="36" height="36" fill="white" transform="translate(36.0815)"/>
</clipPath>
<clipPath id="clip2_1_43">
<rect width="36" height="36" fill="white" transform="translate(72.0815)"/>
</clipPath>
<clipPath id="clip3_1_43">
<rect width="36" height="36" fill="white" transform="translate(108.081)"/>
</clipPath>
<clipPath id="clip4_1_43">
<rect width="36" height="36" fill="white" transform="translate(144.081)"/>
</clipPath>
</defs>
</svg>
