<svg width="26" height="26" viewBox="0 0 26 26" fill="none" xmlns="http://www.w3.org/2000/svg">
<path d="M20.4655 16.2403C19.6258 16.0597 18.9616 16.4496 18.3735 16.7901C17.7711 17.1408 16.6258 18.0699 15.9693 17.8322C12.6082 16.4483 9.44706 13.5064 8.07863 10.1318C7.83745 9.46133 8.7622 8.30876 9.11044 7.69933C9.44835 7.1094 9.83011 6.4389 9.656 5.59298C9.49865 4.83282 7.46341 2.2431 6.74374 1.53492C6.2691 1.06713 5.78286 0.809846 5.28374 0.768258C3.40714 0.687696 1.31129 3.19167 0.943714 3.7907C0.0228264 5.06802 0.0279888 6.76766 0.959189 8.82852C3.20336 14.3641 11.6912 22.7179 17.2475 25.0464C18.2728 25.5259 19.2104 25.7663 20.0527 25.7663C20.8768 25.7663 21.6107 25.5363 22.2415 25.0803C22.7173 24.8061 25.324 22.6062 25.2556 20.6792C25.2143 20.1879 24.9577 19.6968 24.496 19.2212C23.793 18.4948 21.22 16.3989 20.4655 16.2403Z" fill="#64646A"/>
</svg>
