<svg width="25" height="21" viewBox="0 0 25 21" fill="none" xmlns="http://www.w3.org/2000/svg">
<path d="M22.2985 5.26193C22.3147 5.48068 22.3147 5.69818 22.3147 5.91568C22.3147 12.5719 17.2485 20.2419 7.9897 20.2419C5.1372 20.2419 2.4872 19.4157 0.257202 17.9807C0.662202 18.0269 1.0522 18.0432 1.47345 18.0432C3.8272 18.0432 5.99345 17.2482 7.7247 15.8919C5.51095 15.8457 3.65595 14.3957 3.01595 12.4007C3.3272 12.4469 3.6397 12.4782 3.9672 12.4782C4.41845 12.4782 4.8722 12.4157 5.29345 12.3069C2.9847 11.8394 1.25595 9.81318 1.25595 7.36568V7.30318C1.9272 7.67693 2.70595 7.91068 3.53095 7.94193C2.1747 7.03943 1.28595 5.49568 1.28595 3.74943C1.28595 2.81443 1.5347 1.95693 1.97095 1.20943C4.4497 4.26318 8.17595 6.25943 12.3535 6.47818C12.276 6.10318 12.2285 5.71443 12.2285 5.32443C12.2285 2.54943 14.4735 0.289429 17.2635 0.289429C18.7135 0.289429 20.0222 0.896928 20.9422 1.87943C22.0797 1.66068 23.1697 1.23943 24.1372 0.663178C23.7635 1.83193 22.9672 2.81443 21.9235 3.43818C22.9372 3.32818 23.9197 3.04818 24.8222 2.65818C24.1372 3.65568 23.281 4.54443 22.2985 5.26193Z" fill="#64646A"/>
</svg>
